<svg xmlns="http://www.w3.org/2000/svg" width="1200" height="630" viewBox="0 0 1200 630">
  <defs>
    <linearGradient id="bg" x1="0" y1="0" x2="1" y2="1">
      <stop offset="0" stop-color="#f8f9fb" />
      <stop offset="1" stop-color="#eef1f5" />
    </linearGradient>
  </defs>
  <rect width="1200" height="630" fill="url(#bg)" />
  <g opacity="0.25" stroke="#d7dbe2" stroke-width="1">
    <path d="M0 90 H1200" /><path d="M0 180 H1200" /><path d="M0 270 H1200" />
    <path d="M0 360 H1200" /><path d="M0 450 H1200" /><path d="M0 540 H1200" />
    <path d="M120 0 V630" /><path d="M240 0 V630" /><path d="M360 0 V630" />
    <path d="M480 0 V630" /><path d="M600 0 V630" /><path d="M720 0 V630" />
    <path d="M840 0 V630" /><path d="M960 0 V630" /><path d="M1080 0 V630" />
  </g>
  <rect x="80" y="90" width="1040" height="450" rx="28" fill="#ffffff" stroke="#e0e4ea" />
  <text x="140" y="210" font-family="Space Grotesk, Manrope, Arial, sans-serif" font-size="56" font-weight="600" fill="#14171c">JWT Encoder</text>
  <text x="140" y="270" font-family="Manrope, Arial, sans-serif" font-size="24" fill="#5a6472">Create and sign JSON Web Tokens online.</text>
  <text x="140" y="330" font-family="Manrope, Arial, sans-serif" font-size="20" fill="#5a6472">HS256 / HS384 / HS512 · Client-side only</text>
  <text x="140" y="470" font-family="Manrope, Arial, sans-serif" font-size="18" fill="#8b93a1">developer-tools-suite.netlify.app</text>
</svg>
